<svg version="1.2" xmlns="http://www.w3.org/2000/svg" viewBox="0 0 1510 1510" width="1510" height="1510">
	<title>ALV</title>
	<defs>
		<clipPath clipPathUnits="userSpaceOnUse" id="cp1">
			<path d="m-4322.16 0.59h5831.98v1509.26h-5831.98z"/>
		</clipPath>
	</defs>
	<style>
		.s0 { fill: #003781 } 
	</style>
	<g id="Allianz">
		<g id="Eagle">
			<g id="Clip-Path: Clip-Path" clip-path="url(#cp1)">
				<g id="Clip-Path">
					<g id="Layer">
						<path id="path37647" fill-rule="evenodd" class="s0" d="m754.9 1509.9c-427.5 0-754.9-323.3-754.9-755.3 0-430.8 327.4-754 754.9-754 434.3 0 754.9 323.2 754.9 754 0 432-320.6 755.3-754.9 755.3zm0-1391.8c-360.7 0-627.9 268.5-627.9 636.5 0 367.9 267.2 636.4 627.9 636.4 360.8 0 628-268.5 628-636.4 0-368-267.2-636.5-628-636.5zm-400.8 1031.8v-593.7c0-60.1 26.7-84.1 86.8-84.1h106.9v677.8zm300.7 0v-732.6c0-38.7-13.4-51.4-46.8-51.4h-20.1v-86.8h180.4c60.1 0 86.8 20.7 86.8 84.1v786.7zm307.3-677.8h106.9c60.2 0 86.9 24 86.9 84.1v593.7h-193.8z"/>
					</g>
				</g>
			</g>
		</g>
	</g>
</svg>